<?xml version="1.0" encoding="utf-8"?>
<!-- Generator: Adobe Illustrator 26.3.1, SVG Export Plug-In . SVG Version: 6.00 Build 0)  -->
<svg version="1.1" id="Layer_1" xmlns="http://www.w3.org/2000/svg" xmlns:xlink="http://www.w3.org/1999/xlink" x="0px" y="0px"
	 viewBox="0 0 56 56" style="enable-background:new 0 0 56 56;" xml:space="preserve">
<path d="M28,24.2c0.4,0,0.7-0.2,1.2-0.6l6.8-6.4c0.4-0.3,0.5-0.7,0.5-1.2c0-0.9-0.6-1.5-1.5-1.5c-0.4,0-0.9,0.2-1.2,0.5l-2.7,2.8
	l-1.6,1.9l0.3-3.3V8.3c0-1.1-0.8-1.9-1.8-1.9c-1,0-1.8,0.9-1.8,1.9v8.2l0.3,3.3l-1.4-1.7l-2.9-3c-0.3-0.3-0.7-0.5-1.2-0.5
	c-0.9,0-1.5,0.6-1.5,1.5c0,0.5,0.2,0.8,0.5,1.2l6.8,6.4C27.3,24.1,27.6,24.2,28,24.2z M39.3,30.2c0.7,0.7,1.9,0.7,2.7-0.1l3.8-3.8
	c0.8-0.8,0.8-1.9,0.1-2.6C45.2,23,44,23,43.2,23.8l-3.8,3.8C38.6,28.4,38.6,29.6,39.3,30.2z M14.1,30.1c0.8,0.8,2,0.8,2.6,0.1
	c0.7-0.7,0.7-1.8-0.1-2.6l-3.8-3.8C12,23,10.9,23,10.2,23.7c-0.7,0.7-0.7,1.8,0.1,2.6L14.1,30.1z M1.9,52h52.2c1,0,1.9-0.8,1.9-1.8
	c0-1-0.9-1.7-1.9-1.7H37.5c1.5-2,2.4-4.4,2.4-7c0-6.5-5.4-11.9-11.8-11.9c-6.5,0-11.8,5.4-11.8,11.9c0,2.6,0.9,5,2.4,7H1.9
	c-1,0-1.9,0.8-1.9,1.7C0,51.2,0.9,52,1.9,52z M4.7,42.7h5.4c1.1,0,2-0.8,2-1.8c0-1-0.8-1.8-2-1.8H4.7c-1.1,0-1.9,0.8-1.9,1.8
	C2.8,41.9,3.6,42.7,4.7,42.7z M45.9,42.7h5.4c1.1,0,1.9-0.8,1.9-1.8c0-1-0.8-1.8-1.9-1.8h-5.4c-1.1,0-2,0.8-2,1.8
	C44,41.9,44.8,42.7,45.9,42.7z"/>
</svg>
